<svg width="512" height="512" viewBox="0 0 512 512" fill="none" xmlns="http://www.w3.org/2000/svg">
<rect width="512" height="512" fill="white"/>
<path d="M99.2727 303V209.909H155.455V219.909H110.545V251.364H152.545V261.364H110.545V293H156.182V303H99.2727ZM175.773 303V209.909H207.227C214.53 209.909 220.5 211.227 225.136 213.864C229.803 216.47 233.258 220 235.5 224.455C237.742 228.909 238.864 233.879 238.864 239.364C238.864 244.848 237.742 249.833 235.5 254.318C233.288 258.803 229.864 262.379 225.227 265.045C220.591 267.682 214.652 269 207.409 269H184.864V259H207.045C212.045 259 216.061 258.136 219.091 256.409C222.121 254.682 224.318 252.348 225.682 249.409C227.076 246.439 227.773 243.091 227.773 239.364C227.773 235.636 227.076 232.303 225.682 229.364C224.318 226.424 222.106 224.121 219.045 222.455C215.985 220.758 211.924 219.909 206.864 219.909H187.045V303H175.773ZM318.114 209.909H329.386V271.545C329.386 277.909 327.886 283.591 324.886 288.591C321.917 293.561 317.72 297.485 312.295 300.364C306.871 303.212 300.508 304.636 293.205 304.636C285.902 304.636 279.538 303.212 274.114 300.364C268.689 297.485 264.477 293.561 261.477 288.591C258.508 283.591 257.023 277.909 257.023 271.545V209.909H268.295V270.636C268.295 275.182 269.295 279.227 271.295 282.773C273.295 286.288 276.144 289.061 279.841 291.091C283.568 293.091 288.023 294.091 293.205 294.091C298.386 294.091 302.841 293.091 306.568 291.091C310.295 289.061 313.144 286.288 315.114 282.773C317.114 279.227 318.114 275.182 318.114 270.636V209.909ZM351.898 303V209.909H384.443C390.928 209.909 396.277 211.03 400.489 213.273C404.701 215.485 407.837 218.47 409.898 222.227C411.958 225.955 412.989 230.091 412.989 234.636C412.989 238.636 412.277 241.939 410.852 244.545C409.458 247.152 407.61 249.212 405.307 250.727C403.034 252.242 400.564 253.364 397.898 254.091V255C400.746 255.182 403.61 256.182 406.489 258C409.367 259.818 411.777 262.424 413.716 265.818C415.655 269.212 416.625 273.364 416.625 278.273C416.625 282.939 415.564 287.136 413.443 290.864C411.322 294.591 407.973 297.545 403.398 299.727C398.822 301.909 392.867 303 385.534 303H351.898ZM363.17 293H385.534C392.898 293 398.125 291.576 401.216 288.727C404.337 285.848 405.898 282.364 405.898 278.273C405.898 275.121 405.095 272.212 403.489 269.545C401.883 266.848 399.595 264.697 396.625 263.091C393.655 261.455 390.14 260.636 386.08 260.636H363.17V293ZM363.17 250.818H384.08C387.473 250.818 390.534 250.152 393.261 248.818C396.019 247.485 398.201 245.606 399.807 243.182C401.443 240.758 402.261 237.909 402.261 234.636C402.261 230.545 400.837 227.076 397.989 224.227C395.14 221.348 390.625 219.909 384.443 219.909H363.17V250.818Z" fill="black"/>
</svg>
